<svg id="Layer_1" data-name="Layer 1" xmlns="http://www.w3.org/2000/svg" viewBox="0 0 350 170"><defs><style>.cls-1{fill:#b41f66;}.cls-2{fill:#fced11;}.cls-3{fill:#0593cd;}.cls-4{fill:#fff;}</style></defs><title>SCNG-graphics</title><path d="M16.26,161v-1.68a11.36,11.36,0,0,1-1,.89,5.7,5.7,0,0,1-3.46,1.13A4.6,4.6,0,0,1,7.25,158a17.94,17.94,0,0,1-.45-5.21c0-1.27,0-2.54,0-3.84q0-2.57.1-5.14A17.5,17.5,0,0,1,7.25,140c1.1-3.67,4.6-3.63,5.69-3.63a6.74,6.74,0,0,1,3.84.93,3.39,3.39,0,0,1,.79.72,4,4,0,0,1,.82,1.51,10.53,10.53,0,0,1,.21,2.91v1.72H15.75V143c0-.41,0-.82,0-1.23,0-1-.17-2.81-2.71-2.81a3.28,3.28,0,0,0-1.89.51,2.57,2.57,0,0,0-.62.55,2.69,2.69,0,0,0-.38,1,44.24,44.24,0,0,0-.34,6.86v2.91c0,1.37,0,2.71.1,4.08a7.36,7.36,0,0,0,.34,2.61,2.53,2.53,0,0,0,2.44,1.44,3.26,3.26,0,0,0,2.19-.79,3,3,0,0,0,.79-1.06,11.39,11.39,0,0,0,.34-3.46v-2.47H12.42v-2.61H18.8V161Z"/><path d="M35.71,161l-4.12-10.63h-2.5V161h-3V136.75h5.28a6.86,6.86,0,0,1,4.53,1.13c2,1.65,1.89,4.84,1.89,5.32a17.62,17.62,0,0,1-.24,3,5.3,5.3,0,0,1-1,2.54,3.6,3.6,0,0,1-2,1.23l4.32,11Zm-1.2-19.86c-.62-1.75-2.47-1.61-3.94-1.61H29.09V148h1.58a7.38,7.38,0,0,0,2.64-.27c1.51-.62,1.47-2.74,1.47-4A8.11,8.11,0,0,0,34.51,141.11Z"/><path d="M53.95,161l-.86-4.66H47.46L46.64,161H43.52l5.21-24.21h3L57.1,161Zm-3.74-19.72L48,153.69h4.6Z"/><path d="M73.32,149.51c-1.13,1.37-3.19,1.51-4.8,1.51H66V161H63V136.75h6.28c2.37,0,3.33.69,4.08,1.61,1.41,1.71,1.27,3.74,1.27,5.73C74.59,144.3,74.79,147.73,73.32,149.51Zm-1.75-7.58c-.27-2.4-2.06-2.44-4-2.44H66v8.88h2c1.34,0,2.71.07,3.36-1.41a6.78,6.78,0,0,0,.27-2.71C71.64,143.47,71.64,142.72,71.57,141.93Z"/><path d="M89.95,161V149.68H84.43V161h-3V136.75h3V147h5.52V136.75h3V161Z"/><path d="M100.54,161V136.75h3V161Z"/><path d="M122.38,155a14.44,14.44,0,0,1-.14,2.09c-.45,2.57-1.78,3.36-2.85,3.77a8.1,8.1,0,0,1-2.67.41,5.63,5.63,0,0,1-3.67-1.06,6,6,0,0,1-1.13-1.23c-.93-1.41-1-3.19-1-6.55v-3.88c0-1.37,0-2.71,0-4.08,0-1.85,0-4.49,1.27-6.14a6,6,0,0,1,4.77-2,5.46,5.46,0,0,1,4,1.54c.93,1,1.27,2.19,1.27,4.87,0,.51,0,1.06,0,1.58h-2.78c0-.86,0-1.75,0-2.64a2.57,2.57,0,0,0-.93-2.33,2.47,2.47,0,0,0-1.54-.48,2.57,2.57,0,0,0-2.74,2.13,49.84,49.84,0,0,0-.34,8c0,1.82,0,3.6.1,5.42a7.08,7.08,0,0,0,.48,3.16,2.76,2.76,0,0,0,2.43,1.2,2.49,2.49,0,0,0,1.61-.51c1.13-.86,1.1-2.78,1.1-4v-1.78h2.81C122.42,153.32,122.42,154.17,122.38,155Z"/><path d="M138.36,160.28a6.62,6.62,0,0,1-3.77,1c-.86,0-4.32-.07-5.45-3.33a8.09,8.09,0,0,1-.38-2.71V152.6h2.85v1.2a9.55,9.55,0,0,0,.27,3.19,2.7,2.7,0,0,0,2.71,1.75,2.93,2.93,0,0,0,2.78-1.58,3.4,3.4,0,0,0,.27-1.44c0-2.06-.93-2.91-2.26-4.29l-3.26-3.36c-1.89-2-2.78-3.26-2.78-6.07a8.73,8.73,0,0,1,.27-2.3c.48-1.58,1.82-3.33,5.35-3.33.82,0,4.08,0,4.9,3.16a12.79,12.79,0,0,1,.21,2.81v1.54H137.4c0-1.51,0-1.13,0-2a2.63,2.63,0,0,0-1.3-2.71,3.1,3.1,0,0,0-1.27-.24,2.43,2.43,0,0,0-1.82.65,2.49,2.49,0,0,0-.48.65,4.14,4.14,0,0,0-.24,1.61,4.35,4.35,0,0,0,.21,1.41,9.09,9.09,0,0,0,2.19,2.92l3.81,4c.27.31.51.62.75.93a6.62,6.62,0,0,1,1.34,4.32C140.56,158.36,139.39,159.59,138.36,160.28Z"/><path d="M170.28,153q0,1.34-.1,2.68c-.17,1.92-.75,3.67-2.54,4.63a9.5,9.5,0,0,1-4.56.65h-4.53V136.75h4.56a10.46,10.46,0,0,1,4.36.55,4.71,4.71,0,0,1,2.71,3.91c.14,1,.17,3.57.17,6.41C170.35,149.41,170.32,151.22,170.28,153Zm-2.95-9.12c0-1.92-.14-2.91-.86-3.63s-2.33-.72-3.36-.72h-1.54v18.76h2a5.34,5.34,0,0,0,2.4-.38,2.25,2.25,0,0,0,1.2-1.82,53.24,53.24,0,0,0,.21-6.24C167.37,147.86,167.4,145.87,167.33,143.89Z"/><path d="M177.69,161V136.75h10.67v2.71H180.7v7.2h6.69v2.74H180.7v8.85h7.89V161Z"/><path d="M205.77,149.51c-1.13,1.37-3.19,1.51-4.8,1.51h-2.54V161h-3V136.75h6.28c2.37,0,3.33.69,4.08,1.61,1.41,1.71,1.27,3.74,1.27,5.73C207,144.3,207.24,147.73,205.77,149.51ZM204,141.93c-.28-2.4-2.06-2.44-4-2.44h-1.58v8.88h2c1.34,0,2.71.07,3.36-1.41a6.79,6.79,0,0,0,.27-2.71C204.09,143.47,204.09,142.72,204,141.93Z"/><path d="M222.57,161l-.86-4.66h-5.62l-.82,4.66h-3.12l5.21-24.21h3L225.73,161Zm-3.74-19.72-2.23,12.45h4.6Z"/><path d="M241.19,161l-4.12-10.63h-2.5V161h-3V136.75h5.28a6.87,6.87,0,0,1,4.53,1.13c2,1.65,1.89,4.84,1.89,5.32a17.62,17.62,0,0,1-.24,3,5.31,5.31,0,0,1-1,2.54,3.6,3.6,0,0,1-2,1.23l4.32,11ZM240,141.11c-.62-1.75-2.47-1.61-3.94-1.61h-1.47V148h1.58a7.39,7.39,0,0,0,2.64-.27c1.51-.62,1.47-2.74,1.47-4A8.12,8.12,0,0,0,240,141.11Z"/><path d="M256.93,139.46V161h-3v-21.5h-4.6v-2.71h12.17v2.71Z"/><path d="M280.79,161l.41-21.91L277.6,161H273.8l-3.6-21.91.48,21.91h-2.95V136.75h4.53l3.4,21.6,3.33-21.6h4.6V161Z"/><path d="M291.14,161V136.75h10.66v2.71h-7.65v7.2h6.69v2.74h-6.69v8.85H302V161Z"/><path d="M316.17,161l-4.73-21,.41,21h-3V136.75H313l4.9,21.19-.41-21.19h2.91V161Z"/><path d="M334.21,139.46V161h-3v-21.5h-4.6v-2.71h12.17v2.71Z"/><path d="M344.86,48.78H324.58l-.05.09-.05-.09H293.72v17H327a34.6,34.6,0,1,1-7.84-31.16l8.22-15.69a51.49,51.49,0,0,0-77.21,10.71A51.15,51.15,0,0,0,168.65,23L159.72,37.1a50.51,50.51,0,0,0-4,19.47v2.15a32.9,32.9,0,1,1-9.17-23.56l8.73-16.67A50.57,50.57,0,0,0,122.88,6.86,51.17,51.17,0,0,0,71.77,58c0,.07,0,.13,0,.2a38.51,38.51,0,0,0-24.43-9l-2.17-.24-1.09-.08a16.06,16.06,0,0,1-9.48-3.27c-3.4-2.31-5.55-5.63-5.55-9.34,0-3.92,2.39-7.43,6.14-9.74a16.23,16.23,0,0,1,9.34-2.87c.18,0,.36,0,.54,0s.52,0,.79,0a19.69,19.69,0,0,1,12.25,4l8.28-15.81A39.79,39.79,0,0,0,44.54,5.46c-19.85,0-36,13.82-36,30.81,0,16.61,15,30,34.35,30.78l.37,0,.52,0a24,24,0,0,1,4.17.37,14.83,14.83,0,0,1,10.52,5.38,10.2,10.2,0,0,1,2.82,6.85c0,7-7.84,12.6-17.5,12.6s-17.5-5.64-17.5-12.6a9.17,9.17,0,0,1,.07-1.05H5.26c0,16.79,17.25,30.46,38.46,30.46,17.56,0,32.46-9.44,37-22.24a51,51,0,0,0,75,10.21v12H174V56.73a32.89,32.89,0,0,1,65.78,0v52.35H258v-14a51.5,51.5,0,0,0,86.88-37.47Z"/><path d="M159.72,37.1,168.65,23A51,51,0,0,0,159.72,37.1Z"/><polygon points="324.58 48.78 324.47 48.78 324.52 48.87 324.58 48.78"/><path d="M210.56,101.33c-.11-14.1-3.24-32.22-6.91-42.7,3.32.39,8.41,5.88,10.34,7.83-.57-4.21-2.36-8.81-5.12-10.94,3.93-2,7-.94,11.11.52-3.33-2.79-10.67-5.38-14.34-4.22,1.33-2.89,3.06-5.35,5.82-6-2.72-.3-6.64-.5-9.23,4.27l-.54,1a18,18,0,0,0-2.62-3.78,16,16,0,0,0-5.85-3.88c-1.13-.38-4.26-1.14-5,.52,1.7.45,7.31,2.93,7.17,6.17-1-.27-2.93-1.06-3.92-1.35a9.91,9.91,0,0,0-6.32,0c-1.58.47-2.44,1.28-3.11,3.44a36.54,36.54,0,0,1,6.94.24c1.45.29,4,.89,4.3,2.17-2.9.65-4.78,1.25-6.72,2.9a7.63,7.63,0,0,0-2.85,4.84,12.62,12.62,0,0,0-.22,2.06,31.34,31.34,0,0,1,6.72-5.06c1.93-1,4-2.17,6.06-1.27-1,2.27-2.21,4.28-1.71,7,3.86-5.49,6.68-6.36,7.44-6.5.69,4.54,1.3,10.52,1.7,14.36.9,8.59,1.63,20.47.48,30.64.3-.14,1.1-.49,2.25-.92A41.94,41.94,0,0,1,210.56,101.33Z"/><path d="M196.46,106.12l.84-.21c.22-2.09.38-4.18.45-6.21.21-6.16-1.21-14.57-2.87-20.68,1.87-.19,4.57,1.11,6.31,3.61a10.74,10.74,0,0,0-4.78-6.1,6.44,6.44,0,0,1,5.86-.09c-1.69-2.37-4.44-3.62-6.73-2.77,1.06-3,3.22-5.45,5-7.49a9,9,0,0,0-6.46,2.91,26.2,26.2,0,0,0-1.71,2.61c-3.89-.8-8.26-3-11.73.13,2.4.32,6.43,1.27,8.43,2.81a11.48,11.48,0,0,0-6.05,10c1.87-3,4.52-7.62,7.93-5.86a11.51,11.51,0,0,0-2.79,7.9c.43-1.78,3.79-6.39,5.54-7.33,1.18,9.31,0,18.32-1.26,27.53,1.38-.2,2.72-.46,4-.77Z"/><path d="M221.65,101l.25.08c.25.08.68.23,1.24.44a132.14,132.14,0,0,1,0-28.27c2,2.57,5,6.28,5.52,8.33a13.49,13.49,0,0,0-3.48-9.27c4-2.23,7.26,3.14,9.55,6.64a13.38,13.38,0,0,0-7.41-11.65c2.35-1.9,5.12-2.57,8-3.06-4.2-3.55-7.76-2.19-12.42-.12a28,28,0,0,0-1.73-2.94,9.66,9.66,0,0,0-7.65-3.47c2.17,2.35,4.78,5.16,6.11,8.7-2.73-.91-6,.69-7.93,3.57a7.64,7.64,0,0,1,7-.13,13,13,0,0,0-5.55,7.44c2.15-3.24,5.32-4.09,8.65-4.67a141.55,141.55,0,0,0-3.62,24.61c0,1.09-.09,2.12-.13,3.13a12.79,12.79,0,0,1,3.6.63Z"/><path d="M224.91,109.82c-4.06,0-9.15,1.16-15.28,4.65A31.38,31.38,0,0,1,194,118.94a26.26,26.26,0,0,1-10.08-2c5.67,5.52,14.23,9.07,24,9.07,11.83,0,22.12-5.26,27.39-13A17.32,17.32,0,0,0,224.91,109.82Z"/><path d="M208.32,112.84a39.49,39.49,0,0,1,9.57-4.07,27.79,27.79,0,0,1,5.65-.92c.45,0,.9-.05,1.34-.05a21.49,21.49,0,0,1,6.45,1l.21.06a32.41,32.41,0,0,0-8.4-4.76c-.55-.21-1-.36-1.24-.44l-.25-.08-.05,0a12.79,12.79,0,0,0-3.6-.63l-.87,0h0a35,35,0,0,0-3.57.32c-1,.17-2,.39-3,.64a41.94,41.94,0,0,0-4.17,1.33c-1.15.43-1.95.79-2.25.92l-.14.06h0v.12c-1.16.44-2.47.88-3.68,1.25s-2.1.62-2.81.82v0l-.19,0-.84.21h0c-1.27.3-2.6.57-4,.77a38.55,38.55,0,0,1-8.33.35A30.61,30.61,0,0,1,179,109a10.58,10.58,0,0,0,4.69,5.21,22.6,22.6,0,0,0,10.76,2.75A27.72,27.72,0,0,0,208.32,112.84Z"/><path class="cls-1" d="M150.78,57.85a28,28,0,0,0-27.31-28v28Z"/><path d="M123.46,85.83A28,28,0,0,0,150.7,59.25H123.46Z"/><path class="cls-2" d="M94.82,59.25a28,28,0,0,0,27.24,26.58V59.25Z"/><path class="cls-3" d="M122.06,29.87a28,28,0,0,0-27.31,28h27.31Z"/><path class="cls-4" d="M123.46,29.87V20h-1.4v9.84c.24,0,.46,0,.7,0S123.23,29.86,123.46,29.87Z"/><path class="cls-4" d="M84.24,57.85v1.4H94.82c0-.47-.07-.93-.07-1.4Z"/><path class="cls-4" d="M161.28,57.85H150.78c0,.47,0,.93-.07,1.4h10.58Z"/><path class="cls-4" d="M122.06,85.83V97.07h1.4V85.83c-.24,0-.46,0-.7,0S122.3,85.83,122.06,85.83Z"/><path class="cls-4" d="M123.46,57.85v-28c-.24,0-.46,0-.7,0s-.47,0-.7,0v28H94.75c0,.47,0,.93.07,1.4h27.24V85.83c.24,0,.46,0,.7,0s.47,0,.7,0V59.25H150.7c0-.47.07-.93.07-1.4Z"/></svg>